<?xml version="1.0" encoding="UTF-8"?> <svg xmlns="http://www.w3.org/2000/svg" width="40" height="40" viewBox="0 0 40 40" fill="none"><rect x="0.5" y="0.5" width="39" height="39" rx="19.5" stroke="#48B59F"></rect><path d="M29 15V14.37C29 13.177 29 12.58 28.842 12.1C28.6982 11.6544 28.4537 11.2479 28.1275 10.912C27.8013 10.5761 27.4022 10.3198 26.961 10.163C26.493 10 25.914 10 24.755 10H15.245C14.086 10 13.507 10 13.039 10.163C12.5979 10.3197 12.1989 10.5759 11.8727 10.9116C11.5465 11.2473 11.3019 11.6536 11.158 12.099C11 12.581 11 13.177 11 14.37V23M29 19V28.374C29 29.232 28.015 29.688 27.392 29.118C27.2172 28.9565 26.988 28.8668 26.75 28.8668C26.512 28.8668 26.2828 28.9565 26.108 29.118L25.625 29.56C25.3188 29.8432 24.9171 30.0004 24.5 30.0004C24.0829 30.0004 23.6812 29.8432 23.375 29.56C23.0688 29.2768 22.6671 29.1196 22.25 29.1196C21.8329 29.1196 21.4312 29.2768 21.125 29.56C20.8188 29.8432 20.4171 30.0004 20 30.0004C19.5829 30.0004 19.1812 29.8432 18.875 29.56C18.5688 29.2768 18.1671 29.1196 17.75 29.1196C17.3329 29.1196 16.9312 29.2768 16.625 29.56C16.3188 29.8432 15.9171 30.0004 15.5 30.0004C15.0829 30.0004 14.6812 29.8432 14.375 29.56L13.892 29.118C13.7172 28.9565 13.488 28.8668 13.25 28.8668C13.012 28.8668 12.7828 28.9565 12.608 29.118C11.985 29.688 11 29.232 11 28.374V27" stroke="#12856E" stroke-width="1.5" stroke-linecap="round"></path><path d="M17.5 18.4L18.929 20L22.5 16" stroke="#12856E" stroke-width="1.5" stroke-linecap="round" stroke-linejoin="round"></path><path d="M15.5 23.5H17M24.5 23.5H20" stroke="#12856E" stroke-width="1.5" stroke-linecap="round"></path></svg> 