<?xml version="1.0" encoding="UTF-8"?> <svg xmlns="http://www.w3.org/2000/svg" width="40" height="40" viewBox="0 0 40 40" fill="none"><rect x="0.5" y="0.5" width="39" height="39" rx="19.5" stroke="#48B59F"></rect><path d="M9.25 20.8C9.25 20.9989 9.32902 21.1897 9.46967 21.3303C9.61032 21.471 9.80109 21.55 10 21.55C10.1989 21.55 10.3897 21.471 10.5303 21.3303C10.671 21.1897 10.75 20.9989 10.75 20.8H9.25ZM10.997 24.844C10.9167 24.6666 10.7706 24.5273 10.5894 24.4557C10.4083 24.3841 10.2065 24.3857 10.0265 24.4603C9.84661 24.5349 9.70275 24.6765 9.62539 24.8552C9.54802 25.034 9.54322 25.2358 9.612 25.418L10.997 24.844ZM22.848 14.914C22.9445 14.934 23.044 14.9347 23.1408 14.9162C23.2377 14.8977 23.3299 14.8603 23.4122 14.8062C23.4946 14.7521 23.5655 14.6822 23.6209 14.6007C23.6763 14.5192 23.715 14.4275 23.735 14.331C23.755 14.2345 23.7557 14.135 23.7372 14.0382C23.7187 13.9414 23.6813 13.8491 23.6272 13.7668C23.5731 13.6844 23.5032 13.6135 23.4217 13.5581C23.3402 13.5027 23.2485 13.464 23.152 13.444L22.848 14.914ZM26.555 16.848C26.535 16.7515 26.4963 16.66 26.4409 16.5785C26.3856 16.497 26.3147 16.4272 26.2324 16.3732C26.1501 16.3191 26.0579 16.2817 25.9612 16.2632C25.8644 16.2448 25.765 16.2455 25.6685 16.2655C25.572 16.2855 25.4805 16.3242 25.399 16.3796C25.3175 16.4349 25.2477 16.5058 25.1937 16.5881C25.1396 16.6704 25.1022 16.7626 25.0837 16.8594C25.0653 16.9561 25.066 17.0556 25.086 17.152L26.555 16.848ZM19.515 29.892L19.775 29.454L18.483 28.69L18.223 29.128L19.515 29.892ZM16.225 29.454L16.485 29.892L17.776 29.128L17.516 28.69L16.225 29.454ZM18.224 29.128C18.2011 29.1666 18.1681 29.1983 18.1287 29.2197C18.0893 29.2412 18.0449 29.2516 18 29.25C17.9552 29.2516 17.9107 29.2412 17.8713 29.2197C17.8319 29.1983 17.7989 29.1666 17.776 29.128L16.486 29.892C17.162 31.036 18.838 31.036 19.515 29.892L18.224 29.128ZM16.8 14.75H19.2V13.25H16.8V14.75ZM25.25 20.8V21.6H26.75V20.8H25.25ZM14.313 26.835C13.521 26.81 13.09 26.741 12.756 26.603L12.182 27.988C12.779 28.236 13.437 28.308 14.265 28.335L14.313 26.835ZM9.612 25.418C10.0941 26.5815 11.0185 27.5059 12.182 27.988L12.756 26.603C12.3616 26.4396 12.0032 26.2 11.7014 25.898C11.3996 25.596 11.1602 25.2385 10.997 24.844L9.612 25.418ZM25.25 21.6C25.25 22.542 25.25 23.211 25.214 23.738C25.178 24.258 25.111 24.583 25.003 24.844L26.388 25.418C26.585 24.944 26.669 24.436 26.71 23.84C26.75 23.25 26.75 22.522 26.75 21.6H25.25ZM21.735 28.335C22.563 28.308 23.221 28.235 23.818 27.988L23.244 26.603C22.909 26.741 22.479 26.81 21.687 26.835L21.735 28.335ZM25.003 24.844C24.8396 25.2384 24.6 25.5968 24.298 25.8986C23.996 26.2004 23.6375 26.4398 23.243 26.603L23.818 27.988C24.9815 27.5059 25.9059 26.5815 26.388 25.418L25.003 24.844ZM16.8 13.25C15.505 13.25 14.481 13.25 13.663 13.327C12.833 13.406 12.137 13.571 11.518 13.95L12.302 15.229C12.645 15.019 13.085 14.889 13.805 14.82C14.535 14.75 15.476 14.75 16.8 14.75V13.25ZM10.75 20.8C10.75 19.476 10.75 18.536 10.82 17.805C10.889 17.085 11.019 16.645 11.229 16.302L9.95 15.518C9.57 16.137 9.406 16.833 9.327 17.663C9.249 18.481 9.25 19.505 9.25 20.8H10.75ZM11.518 13.95C10.8789 14.3416 10.3416 14.879 9.95 15.518L11.229 16.302C11.497 15.8647 11.8647 15.497 12.302 15.229L11.518 13.95ZM17.517 28.69C17.316 28.35 17.14 28.052 16.969 27.816C16.7936 27.5575 16.5652 27.3394 16.299 27.176L15.535 28.468C15.581 28.495 15.645 28.545 15.755 28.698C15.875 28.863 16.011 29.091 16.225 29.454L17.517 28.69ZM14.265 28.335C14.711 28.349 14.995 28.359 15.212 28.385C15.416 28.41 15.493 28.443 15.535 28.468L16.298 27.177C16.008 27.006 15.704 26.934 15.393 26.897C15.095 26.86 14.732 26.849 14.313 26.835L14.265 28.335ZM19.775 29.454C19.989 29.091 20.125 28.863 20.245 28.698C20.355 28.545 20.419 28.495 20.465 28.468L19.702 27.177C19.4358 27.3404 19.2074 27.5585 19.032 27.817C18.86 28.052 18.684 28.351 18.483 28.69L19.775 29.454ZM21.687 26.835C21.268 26.849 20.905 26.86 20.607 26.896C20.297 26.934 19.991 27.007 19.702 27.177L20.465 28.468C20.507 28.443 20.584 28.41 20.788 28.385C21.004 28.359 21.289 28.349 21.735 28.335L21.687 26.835ZM19.2 14.75C20.998 14.75 22.073 14.754 22.848 14.914L23.152 13.444C22.189 13.246 20.925 13.25 19.2 13.25V14.75ZM26.75 20.8C26.75 19.075 26.754 17.811 26.555 16.848L25.086 17.152C25.246 17.927 25.25 19.002 25.25 20.8H26.75Z" fill="#12856E"></path><path d="M15.0332 14C15.0852 13.008 15.2162 12.339 15.5532 11.79C15.8624 11.2863 16.2862 10.8628 16.7902 10.554C17.6922 10 18.9202 10 21.3752 10H23.6252C25.1532 10 26.2052 10 27.0002 10.133M26.0002 22.735C26.7482 22.71 27.2532 22.644 27.6852 22.465C28.1403 22.2765 28.5538 22.0003 28.9022 21.652C29.2505 21.3036 29.5267 20.8901 29.7152 20.435C30.0002 19.746 30.0002 18.872 30.0002 17.125V16.375C30.0002 14.847 30.0002 13.795 29.8672 13" stroke="#12856E" stroke-width="1.5" stroke-linecap="round"></path><path d="M14.5098 21H14.5178M17.9998 21H18.0088M21.4908 21H21.4998" stroke="#12856E" stroke-width="2" stroke-linecap="round" stroke-linejoin="round"></path></svg> 