<?xml version="1.0" encoding="UTF-8"?> <svg xmlns="http://www.w3.org/2000/svg" width="40" height="40" viewBox="0 0 40 40" fill="none"><rect x="0.5" y="0.5" width="39" height="39" rx="19.5" stroke="#48B59F"></rect><path d="M13 17.9791C13 19.0951 14.79 20.0001 17 20.0001V17.9791C17 16.9851 17 16.4871 16.603 16.1841C16.205 15.8811 15.811 15.9941 15.023 16.2211C13.815 16.5701 13 17.2251 13 17.9791Z" stroke="#12856E" stroke-width="1.5" stroke-linecap="round" stroke-linejoin="round"></path><path d="M24 16.5C24 18.433 20.866 20 17 20C13.134 20 10 18.433 10 16.5C10 14.567 13.134 13 17 13C20.866 13 24 14.567 24 16.5Z" stroke="#12856E" stroke-width="1.5" stroke-linecap="round" stroke-linejoin="round"></path><path d="M10 17V23.667C10 25.507 13.134 27 17 27H28C28.943 27 29.414 27 29.707 26.707C30 26.414 30 25.943 30 25V22C30 21.057 30 20.586 29.707 20.293C29.414 20 28.943 20 28 20H17M26 27V25M22 27V25M18 27V25M14 26.5V24.5" stroke="#12856E" stroke-width="1.5" stroke-linecap="round" stroke-linejoin="round"></path></svg> 