<?xml version="1.0" encoding="UTF-8"?> <svg xmlns="http://www.w3.org/2000/svg" width="40" height="40" viewBox="0 0 40 40" fill="none"><rect x="0.5" y="0.5" width="39" height="39" rx="19.5" stroke="#48B59F"></rect><path d="M26 14C25.953 12.447 25.78 11.52 25.138 10.879C24.258 10 22.842 10 20.01 10H16.007C13.175 10 11.759 10 10.88 10.879C10 11.757 10 13.172 10 16V24C10 26.828 10 28.243 10.88 29.121C11.76 29.999 13.175 30 16.007 30H20.011C22.842 30 24.258 30 25.138 29.121C25.78 28.48 25.953 27.554 26 26" stroke="#12856E" stroke-width="1.5" stroke-linecap="round" stroke-linejoin="round"></path><path d="M28.242 19.742L29.419 18.565C29.689 18.295 29.825 18.159 29.897 18.013C29.9641 17.876 29.999 17.7255 29.999 17.573C29.999 17.4205 29.9641 17.27 29.897 17.133C29.825 16.987 29.689 16.851 29.419 16.581C29.149 16.311 29.013 16.175 28.867 16.103C28.73 16.0359 28.5795 16.001 28.427 16.001C28.2745 16.001 28.124 16.0359 27.987 16.103C27.841 16.175 27.706 16.311 27.435 16.581L26.258 17.758M28.242 19.742L22.976 25.008L20 26L20.992 23.024L26.258 17.758M28.242 19.742L26.258 17.758M13 27H14L15.25 24.5L16.5 27H17.5M14 14H22M14 18H20" stroke="#12856E" stroke-width="1.5" stroke-linecap="round" stroke-linejoin="round"></path></svg> 