<?xml version="1.0" encoding="UTF-8"?> <svg xmlns="http://www.w3.org/2000/svg" width="40" height="40" viewBox="0 0 40 40" fill="none"><rect x="0.5" y="0.5" width="39" height="39" rx="19.5" stroke="#48B59F"></rect><path d="M25 29C26.1046 29 27 28.1046 27 27C27 25.8954 26.1046 25 25 25C23.8954 25 23 25.8954 23 27C23 28.1046 23.8954 29 25 29Z" stroke="#12856E" stroke-width="1.5" stroke-linecap="round" stroke-linejoin="round"></path><path d="M15 29C16.1046 29 17 28.1046 17 27C17 25.8954 16.1046 25 15 25C13.8954 25 13 25.8954 13 27C13 28.1046 13.8954 29 15 29Z" stroke="#12856E" stroke-width="1.5" stroke-linecap="round" stroke-linejoin="round"></path><path d="M10 17V21.947C10 24.329 10 25.52 10.732 26.26C11.219 26.752 11.903 26.917 13 26.972M20.427 13C21.34 13.3 22.057 14.024 22.353 14.947C22.5 15.403 22.5 15.967 22.5 17.097C22.5 17.849 22.5 18.225 22.598 18.529C22.6944 18.8314 22.8609 19.1066 23.0841 19.3322C23.3073 19.5578 23.5807 19.7274 23.882 19.827C24.183 19.926 24.555 19.926 25.3 19.926H30V21.947C30 24.329 30 25.52 29.268 26.26C28.781 26.752 28.097 26.917 27 26.972M17 27H23" stroke="#12856E" stroke-width="1.5" stroke-linecap="round" stroke-linejoin="round"></path><path d="M22.5 15H24.321C25.777 15 26.504 15 27.096 15.354C27.689 15.707 28.034 16.348 28.724 17.63L30 20M15.327 16L16.813 14.826C17.604 14.2 18 13.888 18 13.5M18 13.5C18 13.112 17.604 12.8 16.813 12.174L15.327 11M18 13.5H10" stroke="#12856E" stroke-width="1.5" stroke-linecap="round" stroke-linejoin="round"></path></svg> 