<svg width="1542" height="493" viewBox="0 0 1542 493" fill="none" xmlns="http://www.w3.org/2000/svg">
<path fill-rule="evenodd" clip-rule="evenodd" d="M111.879 0C50.0898 0 0 50.0898 0 111.879V297.984L329.631 53.7215L492.266 173.75V111.879C492.266 50.0898 442.176 0 380.387 0H111.879Z" fill="#12856E"/>
<path fill-rule="evenodd" clip-rule="evenodd" d="M26.0039 452.109L328.538 329.46L491.345 394.79C484.28 449.777 437.294 492.269 380.384 492.269H111.876C77.3777 492.269 46.5266 476.655 26.0039 452.109Z" fill="#DA2127"/>
<path fill-rule="evenodd" clip-rule="evenodd" d="M0 364.746V331.259L329.086 110.731L492.266 220.504V265.741L328.54 166.646L0 364.746Z" fill="#DA2127"/>
<path fill-rule="evenodd" clip-rule="evenodd" d="M9.29053 425.105C5.34463 416.065 2.55878 406.402 1.12109 396.304L329.086 219.826L492.264 307.348V350.33L329.632 273.548L9.29053 425.105Z" fill="#12856E"/>
<path d="M755.108 297.94L703.031 132.743L650.954 297.94H601.658L675.002 79.5078H733.541L806.586 297.94H755.15H755.108Z" fill="#DA2127"/>
<path d="M961.579 297.94V156.969L870.69 297.94H821.395V79.5078H869.15V220.479L960.038 79.5078H1009.33V297.94H961.579Z" fill="#DA2127"/>
<path d="M1025.35 297.807V252.677H1047.21L1108.83 79.5078H1167.37L1228.99 252.677H1250.56V297.896M1095.91 252.677H1177.86L1136.86 132.123L1095.87 252.677H1095.91Z" fill="#DA2127"/>
<path d="M1414.21 237.043V297.94H1366.46V79.5078H1457.35C1469.24 79.5078 1479.9 81.5451 1489.23 85.5754C1498.55 89.6057 1506.47 95.1418 1512.93 102.139C1519.39 109.137 1524.27 117.33 1527.57 126.675C1530.86 136.02 1532.49 146.03 1532.49 156.659C1532.49 167.908 1530.69 178.405 1527.1 188.06C1523.5 197.715 1518.28 206.218 1511.39 213.57C1504.5 220.922 1496.16 226.635 1486.27 230.798C1476.43 234.962 1465.31 236.999 1452.98 236.999H1414.17L1414.21 237.043ZM1414.21 124.771V191.736H1451.83C1462.1 191.736 1470.1 188.591 1475.88 182.346C1481.61 176.057 1484.52 167.953 1484.52 157.943C1484.52 147.934 1481.61 139.918 1475.75 133.85C1469.88 127.783 1461.41 124.771 1450.33 124.771H1414.3H1414.21Z" fill="#DA2127"/>
<path fill-rule="evenodd" clip-rule="evenodd" d="M1208.45 209.793L1192.55 165.098H1192.55L1208.45 209.793H1208.45ZM1245.28 253.069H1245.29V297.765H1245.28V253.069ZM1265.73 297.765V253.069H1349.62V297.765H1265.73ZM1230.16 209.793L1214.25 165.098H1349.66L1316.38 209.793H1230.16ZM1199.7 124.209H1349.64V79.5137H1183.8L1199.7 124.209ZM1178 124.209L1162.1 79.5188H1162.09L1178 124.209H1178Z" fill="#12856E"/>
<path d="M871.744 79.5078H877.45L878.163 201.231L871.744 211.216V79.5078Z" fill="#DA2127"/>
<rect x="1011.99" y="79.5078" width="6.18125" height="218.246" fill="#DA2127"/>
<rect x="1416.15" y="127.06" width="5.70577" height="62.288" fill="#DA2127"/>
<path d="M1492.8 360.095H1501.75V386.78H1502.1L1520.44 360.095H1528.29V402.526H1519.32V375.82H1519.01L1500.57 402.526H1492.8V360.095ZM1514.68 348.99H1520.83C1520.82 351.504 1519.88 353.528 1518.03 355.061C1516.2 356.594 1513.71 357.36 1510.58 357.36C1507.43 357.36 1504.93 356.594 1503.1 355.061C1501.26 353.528 1500.34 351.504 1500.34 348.99H1506.45C1506.44 349.943 1506.74 350.8 1507.36 351.559C1508 352.319 1509.07 352.699 1510.58 352.699C1512.04 352.699 1513.09 352.326 1513.72 351.58C1514.36 350.834 1514.68 349.971 1514.68 348.99Z" fill="#F7F7F7"/>
<path d="M1451.82 402.526V360.095H1480.42V367.491H1460.8V377.602H1478.94V384.998H1460.8V395.129H1480.5V402.526H1451.82Z" fill="#F7F7F7"/>
<path d="M1401.66 402.526V395.316L1402.86 395.212C1404.41 395.088 1405.66 394.501 1406.61 393.451C1407.56 392.388 1408.27 390.696 1408.74 388.375C1409.23 386.041 1409.54 382.906 1409.68 378.969L1410.38 360.095H1439.18V402.526H1430.46V367.284H1418.71L1418.05 382.056C1417.83 386.807 1417.26 390.689 1416.35 393.7C1415.45 396.711 1414.01 398.935 1412.04 400.371C1410.08 401.807 1407.39 402.526 1403.98 402.526H1401.66Z" fill="#F7F7F7"/>
<path d="M1362.98 402.526V360.095H1391.57V367.491H1371.95V377.602H1390.1V384.998H1371.95V395.129H1391.66V402.526H1362.98Z" fill="#F7F7F7"/>
<path d="M1314.2 402.526V360.095H1323.17V377.602H1341.39V360.095H1350.34V402.526H1341.39V384.998H1323.17V402.526H1314.2Z" fill="#F7F7F7"/>
<path d="M1272.62 402.526H1263.01L1277.66 360.095H1289.22L1303.84 402.526H1294.23L1283.6 369.791H1283.27L1272.62 402.526ZM1272.02 385.848H1294.73V392.85H1272.02V385.848Z" fill="#F7F7F7"/>
<path d="M1251.52 360.095V402.526H1242.65V367.388H1225.5V402.526H1216.63V360.095H1251.52Z" fill="#F7F7F7"/>
<path d="M1148.55 360.095H1157.27V373.769C1157.27 375.399 1157.55 376.711 1158.12 377.705C1158.69 378.686 1159.56 379.397 1160.75 379.839C1161.95 380.267 1163.49 380.481 1165.37 380.481C1166.03 380.481 1166.81 380.461 1167.71 380.419C1168.61 380.364 1169.54 380.288 1170.49 380.191C1171.46 380.095 1172.37 379.977 1173.22 379.839C1174.08 379.701 1174.79 379.542 1175.36 379.363V386.448C1174.78 386.642 1174.05 386.814 1173.18 386.966C1172.33 387.104 1171.42 387.229 1170.47 387.339C1169.51 387.436 1168.59 387.512 1167.69 387.567C1166.79 387.622 1166.02 387.65 1165.37 387.65C1161.96 387.65 1158.99 387.167 1156.46 386.2C1153.93 385.219 1151.98 383.707 1150.6 381.662C1149.23 379.618 1148.55 376.987 1148.55 373.769V360.095ZM1173.8 360.095H1182.57V402.526H1173.8V360.095Z" fill="#F7F7F7"/>
<path d="M1098.68 360.095H1107.63V386.78H1107.98L1126.32 360.095H1134.17V402.526H1125.2V375.82H1124.89L1106.45 402.526H1098.68V360.095Z" fill="#F7F7F7"/>
<path d="M1054.85 402.526V360.095H1071.84C1074.96 360.095 1077.57 360.557 1079.65 361.483C1081.74 362.408 1083.31 363.693 1084.36 365.336C1085.41 366.966 1085.93 368.845 1085.93 370.972C1085.93 372.629 1085.6 374.086 1084.94 375.343C1084.27 376.586 1083.36 377.609 1082.2 378.41C1081.05 379.197 1079.74 379.756 1078.26 380.088V380.502C1079.88 380.571 1081.39 381.027 1082.8 381.87C1084.22 382.712 1085.38 383.893 1086.26 385.412C1087.15 386.918 1087.59 388.714 1087.59 390.799C1087.59 393.051 1087.03 395.06 1085.91 396.828C1084.8 398.582 1083.17 399.97 1081 400.993C1078.83 402.015 1076.16 402.526 1072.98 402.526H1054.85ZM1063.82 395.191H1071.14C1073.64 395.191 1075.46 394.715 1076.61 393.762C1077.75 392.795 1078.33 391.51 1078.33 389.908C1078.33 388.734 1078.04 387.698 1077.48 386.801C1076.91 385.903 1076.1 385.198 1075.05 384.687C1074.02 384.176 1072.78 383.921 1071.34 383.921H1063.82V395.191ZM1063.82 377.85H1070.47C1071.7 377.85 1072.79 377.636 1073.75 377.208C1074.71 376.766 1075.47 376.144 1076.03 375.343C1076.59 374.542 1076.88 373.582 1076.88 372.464C1076.88 370.93 1076.33 369.694 1075.24 368.755C1074.16 367.816 1072.63 367.346 1070.64 367.346H1063.82V377.85Z" fill="#F7F7F7"/>
<path d="M1001.33 412.761V395.378H1004.21C1005.19 394.673 1006.08 393.679 1006.9 392.394C1007.71 391.096 1008.41 389.307 1008.99 387.028C1009.57 384.736 1009.99 381.738 1010.23 378.037L1011.44 360.095H1039.51V395.378H1044.15V412.719H1035.53V402.526H1009.94V412.761H1001.33ZM1014.56 395.378H1030.89V367.491H1019.52L1018.85 378.037C1018.67 380.841 1018.38 383.327 1017.96 385.495C1017.56 387.664 1017.07 389.563 1016.49 391.193C1015.92 392.809 1015.28 394.204 1014.56 395.378Z" fill="#F7F7F7"/>
<path d="M954.844 402.526V360.095H963.815V377.602H982.026V360.095H990.976V402.526H982.026V384.998H963.815V402.526H954.844Z" fill="#F7F7F7"/>
<path d="M938.971 378.181V385.37H920.677V378.181H938.971ZM908.039 388.623H916.968C917.12 391.054 917.88 392.884 919.247 394.113C920.614 395.342 922.638 395.957 925.318 395.957C927.5 395.957 929.233 395.446 930.518 394.424C931.802 393.402 932.728 391.931 933.294 390.011C933.86 388.077 934.144 385.764 934.144 383.07V379.631C934.144 376.855 933.819 374.514 933.17 372.608C932.534 370.688 931.561 369.237 930.248 368.257C928.95 367.276 927.286 366.786 925.255 366.786C923.253 366.786 921.664 367.09 920.49 367.697C919.316 368.305 918.46 369.175 917.921 370.308C917.382 371.427 917.051 372.78 916.927 374.369H907.997C908.273 371.579 909.074 369.065 910.4 366.827C911.74 364.576 913.639 362.794 916.098 361.482C918.57 360.17 921.623 359.514 925.255 359.514C928.86 359.514 931.989 360.335 934.641 361.979C937.293 363.623 939.344 365.95 940.794 368.961C942.244 371.972 942.969 375.536 942.969 379.652V383.091C942.969 387.207 942.258 390.764 940.835 393.761C939.427 396.744 937.403 399.051 934.765 400.681C932.127 402.297 928.978 403.105 925.318 403.105C921.823 403.105 918.826 402.497 916.326 401.282C913.826 400.052 911.871 398.353 910.463 396.185C909.054 394.003 908.246 391.482 908.039 388.623Z" fill="#F7F7F7"/>
<path d="M897.06 374.949H887.985C887.819 373.775 887.481 372.732 886.97 371.82C886.459 370.895 885.803 370.108 885.002 369.458C884.201 368.809 883.275 368.312 882.225 367.967C881.19 367.621 880.064 367.449 878.848 367.449C876.652 367.449 874.739 367.994 873.109 369.085C871.48 370.163 870.216 371.737 869.318 373.809C868.42 375.867 867.971 378.367 867.971 381.309C867.971 384.334 868.42 386.876 869.318 388.934C870.23 390.992 871.5 392.545 873.13 393.595C874.76 394.645 876.645 395.17 878.786 395.17C879.988 395.17 881.1 395.011 882.122 394.693C883.158 394.376 884.076 393.913 884.877 393.305C885.678 392.684 886.341 391.931 886.866 391.047C887.405 390.163 887.778 389.155 887.985 388.022L897.06 388.063C896.825 390.011 896.238 391.889 895.299 393.699C894.373 395.494 893.123 397.103 891.549 398.526C889.988 399.935 888.123 401.054 885.955 401.882C883.8 402.697 881.362 403.105 878.641 403.105C874.857 403.105 871.473 402.248 868.489 400.536C865.52 398.823 863.172 396.344 861.445 393.098C859.732 389.852 858.876 385.923 858.876 381.309C858.876 376.682 859.746 372.746 861.486 369.5C863.227 366.254 865.589 363.782 868.572 362.083C871.556 360.37 874.912 359.514 878.641 359.514C881.1 359.514 883.379 359.859 885.478 360.55C887.591 361.24 889.463 362.248 891.093 363.574C892.723 364.887 894.049 366.496 895.071 368.402C896.107 370.308 896.77 372.49 897.06 374.949Z" fill="#F7F7F7"/>
<path d="M787.336 412.761V395.378H790.216C791.196 394.673 792.094 393.679 792.909 392.394C793.724 391.096 794.422 389.307 795.002 387.028C795.582 384.736 795.996 381.738 796.245 378.037L797.446 360.095H825.52V395.378H830.161V412.719H821.542V402.526H795.955V412.761H787.336ZM800.575 395.378H816.901V367.491H805.527L804.864 378.037C804.684 380.841 804.387 383.327 803.973 385.495C803.572 387.664 803.082 389.563 802.502 391.193C801.935 392.809 801.293 394.204 800.575 395.378Z" fill="#F7F7F7"/>
<path d="M777.741 381.309C777.741 385.936 776.864 389.873 775.11 393.119C773.37 396.365 770.994 398.844 767.983 400.557C764.986 402.255 761.616 403.105 757.873 403.105C754.102 403.105 750.718 402.248 747.721 400.536C744.724 398.823 742.355 396.344 740.614 393.098C738.874 389.852 738.004 385.923 738.004 381.309C738.004 376.682 738.874 372.746 740.614 369.5C742.355 366.254 744.724 363.782 747.721 362.083C750.718 360.37 754.102 359.514 757.873 359.514C761.616 359.514 764.986 360.37 767.983 362.083C770.994 363.782 773.37 366.254 775.11 369.5C776.864 372.746 777.741 376.682 777.741 381.309ZM768.646 381.309C768.646 378.312 768.197 375.784 767.299 373.726C766.416 371.668 765.166 370.108 763.549 369.044C761.933 367.981 760.041 367.449 757.873 367.449C755.704 367.449 753.812 367.981 752.196 369.044C750.58 370.108 749.323 371.668 748.425 373.726C747.541 375.784 747.099 378.312 747.099 381.309C747.099 384.307 747.541 386.834 748.425 388.892C749.323 390.95 750.58 392.511 752.196 393.574C753.812 394.638 755.704 395.17 757.873 395.17C760.041 395.17 761.933 394.638 763.549 393.574C765.166 392.511 766.416 390.95 767.299 388.892C768.197 386.834 768.646 384.307 768.646 381.309Z" fill="#F7F7F7"/>
<path d="M694.927 402.526V360.095H711.916C715.037 360.095 717.641 360.557 719.726 361.483C721.812 362.408 723.38 363.693 724.43 365.336C725.479 366.966 726.004 368.845 726.004 370.972C726.004 372.629 725.673 374.086 725.01 375.343C724.347 376.586 723.435 377.609 722.275 378.41C721.128 379.197 719.816 379.756 718.338 380.088V380.502C719.954 380.571 721.467 381.027 722.876 381.87C724.298 382.712 725.452 383.893 726.336 385.412C727.22 386.918 727.662 388.714 727.662 390.799C727.662 393.051 727.102 395.06 725.983 396.828C724.878 398.582 723.242 399.97 721.073 400.993C718.905 402.015 716.232 402.526 713.055 402.526H694.927ZM703.898 395.191H711.211C713.711 395.191 715.534 394.715 716.681 393.762C717.827 392.795 718.401 391.51 718.401 389.908C718.401 388.734 718.117 387.698 717.551 386.801C716.985 385.903 716.177 385.198 715.127 384.687C714.091 384.176 712.855 383.921 711.418 383.921H703.898V395.191ZM703.898 377.85H710.548C711.778 377.85 712.869 377.636 713.822 377.208C714.789 376.766 715.548 376.144 716.101 375.343C716.667 374.542 716.95 373.582 716.95 372.464C716.95 370.93 716.405 369.694 715.314 368.755C714.236 367.816 712.703 367.346 710.714 367.346H703.898V377.85Z" fill="#F7F7F7"/>
<path d="M653.345 402.526H643.731L658.379 360.095H669.94L684.567 402.526H674.954L664.325 369.791H663.994L653.345 402.526ZM652.744 385.848H675.451V392.85H652.744V385.848Z" fill="#F7F7F7"/>
<path d="M617.756 403.105C614.662 403.105 611.907 402.573 609.49 401.51C607.086 400.432 605.187 398.954 603.792 397.076C602.411 395.184 601.7 393.001 601.658 390.529H610.691C610.747 391.565 611.085 392.476 611.707 393.264C612.342 394.037 613.184 394.638 614.234 395.066C615.284 395.494 616.465 395.708 617.777 395.708C619.144 395.708 620.353 395.467 621.403 394.983C622.452 394.5 623.274 393.83 623.868 392.974C624.462 392.117 624.759 391.13 624.759 390.011C624.759 388.878 624.441 387.877 623.806 387.007C623.184 386.123 622.287 385.432 621.113 384.935C619.952 384.438 618.571 384.189 616.969 384.189H613.012V377.601H616.969C618.323 377.601 619.517 377.366 620.553 376.896C621.603 376.427 622.418 375.777 622.998 374.949C623.578 374.106 623.868 373.126 623.868 372.007C623.868 370.943 623.613 370.011 623.102 369.21C622.604 368.395 621.9 367.76 620.988 367.304C620.091 366.848 619.041 366.62 617.839 366.62C616.624 366.62 615.512 366.841 614.504 367.283C613.495 367.711 612.687 368.326 612.079 369.127C611.472 369.928 611.147 370.867 611.106 371.945H602.508C602.549 369.5 603.247 367.345 604.6 365.481C605.954 363.616 607.777 362.159 610.07 361.109C612.376 360.045 614.98 359.514 617.881 359.514C620.809 359.514 623.371 360.045 625.567 361.109C627.763 362.173 629.469 363.609 630.684 365.418C631.914 367.214 632.521 369.231 632.508 371.468C632.521 373.844 631.783 375.826 630.291 377.414C628.813 379.003 626.886 380.011 624.51 380.439V380.771C627.632 381.171 630.008 382.255 631.638 384.023C633.281 385.777 634.096 387.974 634.082 390.612C634.096 393.029 633.399 395.177 631.99 397.055C630.595 398.934 628.668 400.411 626.209 401.489C623.751 402.566 620.933 403.105 617.756 403.105Z" fill="#F7F7F7"/>
</svg>
