<svg width="772" height="775" viewBox="0 0 772 775" fill="none" xmlns="http://www.w3.org/2000/svg">
<path fill-rule="evenodd" clip-rule="evenodd" d="M274.471 0C223.259 0 181.743 41.5158 181.743 92.728V246.977L454.95 44.5258L589.746 144.008V92.728C589.746 41.5158 548.23 0 497.018 0H274.471Z" fill="#F7F7F7"/>
<path fill-rule="evenodd" clip-rule="evenodd" d="M203.303 374.717L454.051 273.062L588.99 327.209C583.134 372.785 544.191 408.003 497.023 408.003H274.476C245.883 408.003 220.313 395.062 203.303 374.717Z" fill="#F7F7F7"/>
<path fill-rule="evenodd" clip-rule="evenodd" d="M181.743 302.315V274.56L454.498 91.7812L589.746 182.764V220.257L454.046 138.125L181.743 302.315Z" fill="#F7F7F7"/>
<path fill-rule="evenodd" clip-rule="evenodd" d="M189.448 352.336C186.177 344.843 183.868 336.834 182.677 328.465L454.503 182.195L589.749 254.736V290.36L454.955 226.721L189.448 352.336Z" fill="#F7F7F7"/>
<path d="M127.183 679.773L84.0202 542.853L40.8575 679.773H0L60.7896 498.73H109.308L169.849 679.773H127.218H127.183Z" fill="#F7F7F7"/>
<path d="M298.315 679.773V562.932L222.984 679.773H182.127V498.73H221.708V615.571L297.038 498.73H337.896V679.773H298.315Z" fill="#F7F7F7"/>
<path d="M351.175 679.663V642.258H369.298L420.37 498.73H468.888L519.96 642.258H537.835V679.736M409.659 642.258H477.578L443.601 542.339L409.624 642.258H409.659Z" fill="#F7F7F7"/>
<path d="M673.462 629.3V679.773H633.881V498.73H709.212C719.072 498.73 727.903 500.419 735.634 503.759C743.366 507.1 749.927 511.688 755.283 517.488C760.638 523.288 764.682 530.079 767.412 537.824C770.143 545.57 771.491 553.865 771.491 562.675C771.491 571.999 770.001 580.699 767.022 588.701C764.043 596.703 759.716 603.751 754.006 609.845C748.296 615.938 741.38 620.674 733.187 624.124C725.03 627.575 715.809 629.263 705.594 629.263H673.426L673.462 629.3ZM673.462 536.246V591.748H704.637C713.149 591.748 719.781 589.142 724.569 583.966C729.321 578.753 731.733 572.036 731.733 563.74C731.733 555.444 729.321 548.8 724.462 543.771C719.603 538.742 712.581 536.246 703.395 536.246H673.533H673.462Z" fill="#F7F7F7"/>
<path fill-rule="evenodd" clip-rule="evenodd" d="M418.17 498.734V498.734H464.5L477.68 535.775H477.675L464.494 498.734L418.17 498.734ZM502.915 606.708L489.733 569.664H489.739L502.921 606.708H502.915ZM533.441 679.621V642.576H533.447V679.621H533.441ZM550.393 679.621H619.923V642.576H550.393V679.621ZM520.907 606.708H592.381L619.967 569.664H507.726L520.907 606.708ZM495.667 535.775H619.944V498.73H482.485L495.667 535.775Z" fill="#F7F7F7"/>
<path d="M223.852 498.73H228.581L229.172 599.618L223.852 607.894V498.73Z" fill="#F7F7F7"/>
<rect x="340.096" y="498.73" width="5.12318" height="180.888" fill="#F7F7F7"/>
<rect x="675.074" y="538.141" width="4.72909" height="51.6259" fill="#F7F7F7"/>
<path d="M739.086 731.322H746.509V753.454H746.801L762.008 731.322H768.521V766.513H761.08V744.364H760.823L745.53 766.513H739.086V731.322ZM757.231 722.112H762.335C762.323 724.197 761.55 725.875 760.015 727.147C758.491 728.418 756.429 729.054 753.829 729.054C751.217 729.054 749.149 728.418 747.626 727.147C746.102 725.875 745.341 724.197 745.341 722.112H750.41C750.398 722.903 750.65 723.613 751.166 724.243C751.693 724.873 752.58 725.188 753.829 725.188C755.043 725.188 755.914 724.879 756.441 724.26C756.968 723.642 757.231 722.926 757.231 722.112Z" fill="#F7F7F7"/>
<path d="M705.102 766.512V731.321H728.814V737.456H712.542V745.841H727.594V751.975H712.542V760.378H728.883V766.512H705.102Z" fill="#F7F7F7"/>
<path d="M663.494 766.512V760.533L664.491 760.447C665.774 760.343 666.81 759.857 667.601 758.986C668.391 758.104 668.981 756.701 669.371 754.776C669.772 752.84 670.029 750.24 670.144 746.975L670.728 731.321H694.613V766.512H687.379V737.284H677.636L677.086 749.535C676.903 753.476 676.433 756.695 675.677 759.192C674.932 761.689 673.741 763.534 672.103 764.725C670.476 765.917 668.248 766.512 665.419 766.512H663.494Z" fill="#F7F7F7"/>
<path d="M631.418 766.512V731.321H655.131V737.456H638.858V745.841H653.911V751.975H638.858V760.378H655.199V766.512H631.418Z" fill="#F7F7F7"/>
<path d="M590.963 766.512V731.321H598.403V745.841H613.507V731.321H620.93V766.512H613.507V751.975H598.403V766.512H590.963Z" fill="#F7F7F7"/>
<path d="M556.476 766.512H548.503L560.651 731.321H570.24L582.371 766.512H574.398L565.583 739.363H565.308L556.476 766.512ZM555.978 752.68H574.81V758.488H555.978V752.68Z" fill="#F7F7F7"/>
<path d="M538.972 731.321V766.512H531.618V737.37H517.391V766.512H510.036V731.321H538.972Z" fill="#F7F7F7"/>
<path d="M453.574 731.321H460.808V742.662C460.808 744.014 461.043 745.102 461.513 745.927C461.982 746.74 462.71 747.33 463.695 747.697C464.692 748.052 465.969 748.229 467.527 748.229C468.077 748.229 468.724 748.212 469.469 748.178C470.213 748.132 470.981 748.069 471.771 747.989C472.573 747.909 473.329 747.811 474.039 747.697C474.749 747.582 475.339 747.45 475.809 747.302V753.178C475.328 753.339 474.727 753.482 474.005 753.608C473.295 753.722 472.544 753.825 471.754 753.917C470.963 753.997 470.196 754.06 469.451 754.106C468.707 754.152 468.065 754.175 467.527 754.175C464.697 754.175 462.234 753.774 460.138 752.972C458.042 752.159 456.421 750.904 455.275 749.209C454.141 747.513 453.574 745.331 453.574 742.662V731.321ZM474.52 731.321H481.789V766.512H474.52V731.321Z" fill="#F7F7F7"/>
<path d="M412.212 731.321H419.635V753.453H419.927L435.134 731.321H441.647V766.512H434.206V744.363H433.948L418.656 766.512H412.212V731.321Z" fill="#F7F7F7"/>
<path d="M375.866 766.512V731.321H389.956C392.545 731.321 394.705 731.705 396.434 732.473C398.164 733.24 399.464 734.305 400.335 735.669C401.206 737.02 401.641 738.578 401.641 740.342C401.641 741.717 401.366 742.926 400.816 743.968C400.266 744.999 399.51 745.847 398.548 746.511C397.597 747.164 396.509 747.628 395.283 747.903V748.247C396.623 748.304 397.878 748.682 399.046 749.381C400.226 750.079 401.183 751.059 401.916 752.319C402.649 753.568 403.015 755.057 403.015 756.787C403.015 758.654 402.552 760.321 401.624 761.787C400.707 763.242 399.35 764.393 397.551 765.241C395.753 766.088 393.536 766.512 390.901 766.512H375.866ZM383.306 760.429H389.372C391.446 760.429 392.958 760.034 393.908 759.244C394.859 758.442 395.335 757.377 395.335 756.048C395.335 755.074 395.1 754.215 394.63 753.47C394.16 752.726 393.49 752.141 392.62 751.718C391.761 751.294 390.735 751.082 389.544 751.082H383.306V760.429ZM383.306 746.047H388.822C389.842 746.047 390.747 745.87 391.537 745.515C392.339 745.148 392.969 744.632 393.427 743.968C393.897 743.304 394.132 742.507 394.132 741.58C394.132 740.308 393.679 739.283 392.774 738.504C391.881 737.725 390.609 737.335 388.96 737.335H383.306V746.047Z" fill="#F7F7F7"/>
<path d="M331.472 775.001V760.584H333.86C334.673 760 335.418 759.175 336.094 758.11C336.77 757.033 337.348 755.549 337.829 753.659C338.311 751.758 338.654 749.272 338.86 746.202L339.857 731.321H363.14V760.584H366.989V774.966H359.841V766.512H338.62V775.001H331.472ZM342.452 760.584H355.992V737.456H346.558L346.009 746.202C345.86 748.527 345.613 750.589 345.27 752.388C344.937 754.186 344.531 755.761 344.05 757.113C343.58 758.453 343.047 759.61 342.452 760.584Z" fill="#F7F7F7"/>
<path d="M292.921 766.512V731.321H300.361V745.841H315.465V731.321H322.888V766.512H315.465V751.975H300.361V766.512H292.921Z" fill="#F7F7F7"/>
<path d="M279.756 746.322V752.284H264.583V746.322H279.756ZM254.102 754.982H261.508C261.634 756.998 262.264 758.516 263.398 759.536C264.532 760.555 266.21 761.065 268.432 761.065C270.242 761.065 271.68 760.641 272.745 759.793C273.811 758.946 274.578 757.726 275.048 756.133C275.518 754.53 275.752 752.611 275.752 750.377V747.525C275.752 745.222 275.483 743.28 274.945 741.7C274.418 740.107 273.61 738.904 272.522 738.091C271.445 737.278 270.065 736.871 268.381 736.871C266.72 736.871 265.402 737.123 264.429 737.627C263.455 738.131 262.745 738.853 262.298 739.792C261.851 740.72 261.576 741.843 261.473 743.16H254.067C254.296 740.846 254.961 738.761 256.061 736.905C257.172 735.038 258.747 733.56 260.786 732.472C262.836 731.384 265.368 730.84 268.381 730.84C271.371 730.84 273.965 731.521 276.165 732.885C278.364 734.248 280.065 736.178 281.268 738.675C282.471 741.173 283.072 744.128 283.072 747.542V750.394C283.072 753.808 282.482 756.758 281.303 759.243C280.134 761.718 278.456 763.631 276.268 764.983C274.08 766.323 271.468 766.993 268.432 766.993C265.534 766.993 263.048 766.489 260.975 765.481C258.902 764.461 257.281 763.052 256.112 761.254C254.944 759.444 254.274 757.353 254.102 754.982Z" fill="#F7F7F7"/>
<path d="M244.998 743.641H237.471C237.334 742.668 237.053 741.803 236.629 741.047C236.206 740.279 235.661 739.626 234.997 739.088C234.333 738.549 233.565 738.137 232.694 737.851C231.835 737.564 230.902 737.421 229.894 737.421C228.072 737.421 226.486 737.873 225.134 738.778C223.782 739.672 222.734 740.978 221.989 742.696C221.245 744.403 220.872 746.476 220.872 748.916C220.872 751.425 221.245 753.533 221.989 755.24C222.745 756.947 223.799 758.235 225.151 759.106C226.503 759.977 228.066 760.412 229.842 760.412C230.839 760.412 231.761 760.28 232.609 760.017C233.468 759.753 234.229 759.369 234.894 758.865C235.558 758.35 236.108 757.726 236.543 756.992C236.99 756.259 237.299 755.423 237.471 754.484L244.998 754.518C244.803 756.133 244.316 757.691 243.537 759.192C242.769 760.681 241.733 762.016 240.427 763.196C239.132 764.364 237.586 765.292 235.787 765.979C234 766.655 231.978 766.993 229.722 766.993C226.583 766.993 223.776 766.283 221.302 764.862C218.839 763.442 216.892 761.386 215.46 758.694C214.039 756.002 213.329 752.743 213.329 748.916C213.329 745.079 214.051 741.814 215.494 739.122C216.938 736.43 218.896 734.38 221.371 732.971C223.845 731.55 226.629 730.84 229.722 730.84C231.761 730.84 233.651 731.126 235.392 731.699C237.145 732.272 238.697 733.108 240.049 734.208C241.401 735.296 242.5 736.631 243.348 738.211C244.207 739.792 244.757 741.602 244.998 743.641Z" fill="#F7F7F7"/>
<path d="M153.996 775.001V760.584H156.385C157.198 760 157.942 759.175 158.618 758.11C159.294 757.033 159.873 755.549 160.354 753.659C160.835 751.758 161.179 749.272 161.385 746.202L162.381 731.321H185.664V760.584H189.513V774.966H182.365V766.512H161.144V775.001H153.996ZM164.976 760.584H178.516V737.456H169.083L168.533 746.202C168.384 748.527 168.138 750.589 167.794 752.388C167.462 754.186 167.055 755.761 166.574 757.113C166.104 758.453 165.572 759.61 164.976 760.584Z" fill="#F7F7F7"/>
<path d="M146.037 748.916C146.037 752.754 145.31 756.019 143.855 758.711C142.412 761.403 140.441 763.459 137.944 764.879C135.458 766.289 132.663 766.993 129.559 766.993C126.431 766.993 123.625 766.283 121.139 764.862C118.653 763.442 116.689 761.386 115.245 758.694C113.802 756.002 113.08 752.743 113.08 748.916C113.08 745.079 113.802 741.814 115.245 739.122C116.689 736.43 118.653 734.38 121.139 732.971C123.625 731.55 126.431 730.84 129.559 730.84C132.663 730.84 135.458 731.55 137.944 732.971C140.441 734.38 142.412 736.43 143.855 739.122C145.31 741.814 146.037 745.079 146.037 748.916ZM138.494 748.916C138.494 746.431 138.122 744.334 137.377 742.627C136.644 740.921 135.607 739.626 134.267 738.744C132.927 737.862 131.357 737.421 129.559 737.421C127.76 737.421 126.191 737.862 124.85 738.744C123.51 739.626 122.468 740.921 121.723 742.627C120.99 744.334 120.623 746.431 120.623 748.916C120.623 751.402 120.99 753.499 121.723 755.205C122.468 756.912 123.51 758.207 124.85 759.089C126.191 759.971 127.76 760.412 129.559 760.412C131.357 760.412 132.927 759.971 134.267 759.089C135.607 758.207 136.644 756.912 137.377 755.205C138.122 753.499 138.494 751.402 138.494 748.916Z" fill="#F7F7F7"/>
<path d="M77.3535 766.512V731.321H91.4436C94.0325 731.321 96.1919 731.705 97.9216 732.473C99.6514 733.24 100.952 734.305 101.822 735.669C102.693 737.02 103.128 738.578 103.128 740.342C103.128 741.717 102.853 742.926 102.303 743.968C101.753 744.999 100.997 745.847 100.035 746.511C99.0844 747.164 97.9961 747.628 96.7704 747.903V748.247C98.1107 748.304 99.365 748.682 100.533 749.381C101.713 750.079 102.67 751.059 103.403 752.319C104.136 753.568 104.503 755.057 104.503 756.787C104.503 758.654 104.039 760.321 103.111 761.787C102.194 763.242 100.837 764.393 99.0386 765.241C97.2401 766.088 95.0234 766.512 92.3887 766.512H77.3535ZM84.7938 760.429H90.8594C92.9328 760.429 94.4449 760.034 95.3957 759.244C96.3465 758.442 96.8219 757.377 96.8219 756.048C96.8219 755.074 96.5871 754.215 96.1174 753.47C95.6477 752.726 94.9776 752.141 94.107 751.718C93.2479 751.294 92.2226 751.082 91.0312 751.082H84.7938V760.429ZM84.7938 746.047H90.3095C91.3291 746.047 92.2341 745.87 93.0245 745.515C93.8263 745.148 94.4564 744.632 94.9146 743.968C95.3843 743.304 95.6191 742.507 95.6191 741.58C95.6191 740.308 95.1666 739.283 94.2617 738.504C93.3681 737.725 92.0966 737.335 90.447 737.335H84.7938V746.047Z" fill="#F7F7F7"/>
<path d="M42.8675 766.512H34.8945L47.043 731.321H56.6311L68.7624 766.512H60.7894L51.9745 739.363H51.6996L42.8675 766.512ZM42.3692 752.68H61.2018V758.488H42.3692V752.68Z" fill="#F7F7F7"/>
<path d="M13.3512 766.993C10.7852 766.993 8.49989 766.552 6.4952 765.67C4.50196 764.776 2.92685 763.551 1.76986 761.993C0.624318 760.423 0.0343661 758.613 0 756.563H7.49182C7.53764 757.422 7.81829 758.178 8.33379 758.831C8.86073 759.473 9.55951 759.971 10.4301 760.326C11.3007 760.681 12.2802 760.859 13.3684 760.859C14.5025 760.859 15.5049 760.658 16.3755 760.257C17.2461 759.856 17.9277 759.301 18.4202 758.59C18.9128 757.88 19.1591 757.061 19.1591 756.133C19.1591 755.194 18.8956 754.363 18.3687 753.642C17.8532 752.909 17.1086 752.336 16.1349 751.923C15.1726 751.511 14.0271 751.305 12.6983 751.305H9.41632V745.841H12.6983C13.8209 745.841 14.8118 745.646 15.671 745.256C16.5416 744.867 17.2174 744.329 17.6986 743.641C18.1797 742.942 18.4202 742.129 18.4202 741.201C18.4202 740.319 18.2083 739.546 17.7845 738.882C17.3721 738.206 16.7879 737.679 16.0318 737.301C15.2872 736.923 14.4166 736.734 13.42 736.734C12.4119 736.734 11.4897 736.917 10.6535 737.283C9.81726 737.639 9.14712 738.148 8.64308 738.813C8.13905 739.477 7.86984 740.256 7.83548 741.15H0.704506C0.738872 739.122 1.31737 737.335 2.44 735.789C3.56262 734.242 5.07473 733.034 6.97632 732.163C8.88937 731.281 11.0487 730.84 13.4543 730.84C15.8829 730.84 18.0079 731.281 19.8293 732.163C21.6507 733.045 23.0654 734.236 24.0735 735.737C25.093 737.226 25.597 738.899 25.5856 740.754C25.597 742.725 24.9842 744.369 23.747 745.686C22.5213 747.003 20.9232 747.84 18.9529 748.195V748.47C21.5418 748.802 23.5122 749.701 24.8639 751.167C26.2271 752.622 26.903 754.444 26.8915 756.632C26.903 758.636 26.3245 760.418 25.156 761.976C23.999 763.533 22.401 764.759 20.3619 765.653C18.3229 766.546 15.986 766.993 13.3512 766.993Z" fill="#F7F7F7"/>
</svg>
